<?xml version="1.0" standalone="no"?>
<!DOCTYPE svg PUBLIC "-//W3C//DTD SVG 20010904//EN"
 "http://www.w3.org/TR/2001/REC-SVG-20010904/DTD/svg10.dtd">
<svg version="1.0" xmlns="http://www.w3.org/2000/svg"
 width="512.000000pt" height="512.000000pt" viewBox="0 0 512.000000 512.000000"
 preserveAspectRatio="xMidYMid meet">
<metadata>
Created by potrace 1.16, written by Peter Selinger 2001-2019
</metadata>
<g transform="translate(0.000000,512.000000) scale(0.100000,-0.100000)"
fill="#000000" stroke="none">
<path d="M1509 4999 l-207 -120 -223 -70 c-279 -87 -267 -77 -328 -279 l-44
-145 -163 -113 c-183 -127 -174 -114 -195 -272 -15 -112 -6 -447 15 -565 57
-318 153 -604 348 -1038 283 -634 300 -683 333 -992 22 -206 23 -212 47 -235
28 -26 68 -25 103 2 l28 22 -6 101 c-23 367 -65 517 -284 1003 -289 643 -381
916 -422 1252 -12 92 -15 362 -5 422 6 37 7 37 33 23 14 -7 59 -47 99 -89 55
-57 86 -80 127 -95 71 -27 210 -55 408 -82 136 -19 166 -21 205 -10 84 22 228
154 287 262 27 49 30 65 35 184 5 100 12 142 28 183 30 72 29 158 -4 283 -30
117 -28 146 21 248 40 84 41 84 184 46 118 -32 232 -85 340 -159 46 -32 97
-64 115 -71 l31 -14 -59 -26 c-82 -37 -215 -73 -294 -81 -55 -6 -72 -12 -96
-36 -23 -24 -27 -34 -22 -61 13 -68 59 -79 207 -51 238 45 454 149 669 322
118 95 306 175 480 203 168 27 410 3 567 -56 80 -31 126 -32 153 -5 20 20 26
63 14 95 -13 34 -174 92 -330 119 -116 21 -342 21 -459 0 -170 -29 -346 -101
-491 -200 -93 -64 -140 -84 -199 -84 -59 0 -106 20 -199 84 -92 63 -207 120
-314 156 -88 29 -241 60 -297 60 -20 0 -98 -40 -236 -121z m35 -231 c-4 -48 0
-86 20 -163 32 -123 32 -140 1 -238 -19 -60 -25 -99 -25 -173 0 -57 -5 -108
-13 -127 -17 -40 -103 -134 -156 -171 l-40 -28 -148 22 c-161 23 -340 57 -359
68 -7 4 -52 46 -101 93 l-89 86 95 66 c53 36 102 76 110 89 8 13 34 85 57 162
24 76 45 140 46 141 2 1 98 33 215 69 164 51 231 78 295 115 46 27 86 50 90
50 4 1 5 -27 2 -61z"/>
<path d="M4180 4840 c-20 -20 -27 -74 -12 -96 4 -6 44 -43 89 -82 68 -60 88
-72 117 -72 61 0 96 64 66 121 -6 10 -45 48 -87 84 -65 56 -82 65 -115 65 -25
0 -45 -7 -58 -20z"/>
<path d="M4497 4462 c-24 -26 -21 -85 7 -140 69 -137 106 -324 106 -538 0
-386 -96 -735 -370 -1344 -217 -482 -274 -630 -304 -788 -9 -45 -27 -191 -41
-325 -30 -287 -57 -458 -90 -584 -106 -399 -301 -582 -623 -584 -113 -1 -171
23 -214 86 -79 116 -80 297 -3 920 60 485 4 746 -183 848 -102 55 -233 71
-347 42 -156 -41 -243 -132 -292 -306 -30 -108 -24 -394 16 -707 64 -508 58
-701 -26 -810 -40 -53 -97 -74 -206 -73 -356 2 -555 224 -657 734 -7 34 -20
66 -33 77 -29 27 -78 26 -105 -3 -29 -30 -28 -74 2 -207 81 -358 224 -574 451
-686 119 -58 219 -77 373 -73 109 4 122 6 184 37 76 37 130 92 165 168 68 150
73 348 17 804 -41 339 -50 586 -26 692 19 80 66 147 124 176 105 53 250 35
320 -39 96 -101 107 -308 44 -829 -59 -479 -51 -681 31 -831 34 -63 90 -114
162 -148 53 -25 64 -26 211 -25 139 0 163 3 232 26 117 39 204 93 288 178 84
84 123 145 181 281 77 177 113 353 159 782 17 155 38 316 46 357 29 138 85
285 244 635 234 515 332 792 397 1125 24 123 27 157 27 380 1 201 -2 260 -17
327 -32 146 -98 325 -134 365 -22 25 -94 24 -116 0z"/>
</g>
</svg>
