<?xml version="1.0" standalone="no"?>
<!DOCTYPE svg PUBLIC "-//W3C//DTD SVG 20010904//EN"
 "http://www.w3.org/TR/2001/REC-SVG-20010904/DTD/svg10.dtd">
<svg version="1.0" xmlns="http://www.w3.org/2000/svg"
 width="512.000000pt" height="512.000000pt" viewBox="0 0 512.000000 512.000000"
 preserveAspectRatio="xMidYMid meet">
<metadata>
Created by potrace 1.16, written by Peter Selinger 2001-2019
</metadata>
<g transform="translate(0.000000,512.000000) scale(0.100000,-0.100000)"
fill="#000000" stroke="none">
<path d="M2428 4936 c-37 -13 -94 -42 -126 -64 -137 -93 -148 -96 -332 -97
-186 -2 -248 -14 -318 -64 -58 -43 -117 -121 -165 -219 -53 -110 -109 -166
-219 -219 -98 -48 -176 -107 -219 -165 -50 -70 -62 -132 -64 -318 -1 -184 -4
-195 -97 -332 -115 -168 -115 -348 0 -516 93 -137 96 -148 97 -332 2 -186 14
-248 64 -318 43 -58 121 -117 219 -164 101 -50 157 -102 207 -194 20 -38 50
-90 65 -115 l27 -45 -224 -615 c-135 -373 -223 -628 -223 -650 0 -43 33 -79
74 -79 16 0 122 32 238 71 123 43 213 68 218 63 5 -5 57 -88 115 -184 59 -96
116 -185 128 -198 25 -27 86 -30 115 -4 13 11 98 231 245 637 l225 620 82 0
82 0 225 -620 c146 -402 232 -626 245 -637 29 -26 90 -23 115 5 12 12 69 101
128 197 58 96 110 179 115 184 5 5 97 -21 219 -63 116 -39 221 -71 235 -71 41
0 76 36 76 78 0 24 -83 267 -223 651 l-224 615 27 45 c15 25 45 77 65 115 50
92 104 143 206 192 98 48 177 108 220 166 50 70 63 133 63 313 1 151 3 163 27
215 14 31 45 84 69 118 57 84 90 180 90 262 0 82 -33 178 -90 262 -24 34 -55
87 -69 118 -24 52 -26 64 -27 215 0 180 -13 243 -63 313 -43 58 -122 118 -220
166 -110 53 -165 109 -218 218 -48 98 -107 176 -165 219 -70 50 -132 62 -318
64 -184 1 -195 4 -332 97 -80 55 -177 88 -258 88 -43 0 -88 -9 -132 -24z m203
-161 c24 -9 78 -38 119 -65 42 -27 105 -62 140 -77 61 -25 75 -27 230 -28 100
-1 179 -6 202 -14 52 -17 108 -83 164 -192 65 -128 145 -208 273 -273 109 -56
175 -112 192 -164 8 -23 13 -102 14 -202 1 -155 3 -169 28 -230 15 -35 50 -98
77 -140 104 -159 104 -221 0 -380 -27 -42 -62 -105 -77 -140 -25 -61 -27 -75
-28 -230 -1 -100 -6 -179 -14 -202 -17 -52 -83 -108 -192 -164 -128 -65 -208
-145 -273 -273 -56 -109 -112 -175 -164 -192 -23 -8 -102 -13 -202 -14 -190
-1 -221 -10 -367 -104 -165 -105 -224 -106 -383 -1 -42 27 -105 62 -140 77
-61 26 -74 27 -230 28 -101 1 -179 6 -202 14 -52 17 -108 83 -164 192 -65 128
-145 208 -273 273 -109 56 -175 112 -192 164 -8 23 -13 102 -14 202 -1 155 -3
169 -28 230 -15 35 -50 98 -77 140 -104 159 -104 221 0 380 27 42 62 105 77
140 25 61 27 75 28 230 1 100 6 179 14 202 17 52 83 108 192 164 128 65 208
145 273 273 56 109 112 175 164 192 23 8 102 13 202 14 153 1 169 3 227 27 33
14 94 47 135 74 127 82 187 98 269 69z m-861 -3136 c25 -6 117 -12 205 -13
l160 -1 70 -38 c39 -20 81 -46 94 -56 l25 -19 -194 -531 c-106 -292 -196 -531
-199 -531 -3 0 -46 65 -94 145 -49 80 -97 150 -107 155 -32 17 -61 11 -227
-44 l-161 -54 31 87 c18 47 100 272 182 499 83 226 155 412 160 412 6 0 30 -5
55 -11z m1804 -427 c88 -240 170 -465 182 -499 l23 -61 -162 54 c-166 55 -195
61 -227 44 -10 -5 -58 -75 -106 -155 -49 -80 -91 -145 -95 -145 -3 0 -92 239
-199 531 l-193 531 24 19 c13 10 56 36 94 56 l70 38 165 2 c91 1 181 6 200 12
19 5 42 9 50 10 11 1 58 -118 174 -437z"/>
<path d="M2329 4464 c-255 -46 -482 -165 -672 -352 -105 -104 -179 -205 -241
-327 -96 -191 -136 -364 -136 -585 0 -219 38 -385 130 -573 122 -246 343 -466
588 -583 182 -87 351 -124 562 -124 350 0 643 117 891 357 111 108 189 212
253 338 96 191 136 364 136 585 0 272 -68 497 -218 725 -60 91 -247 277 -339
338 -152 101 -329 172 -497 202 -110 19 -351 19 -457 -1z m367 -159 c89 -8
235 -50 329 -94 266 -124 477 -352 578 -623 52 -139 62 -201 62 -393 0 -165
-3 -188 -28 -278 -119 -429 -472 -747 -907 -818 -96 -15 -285 -12 -376 6 -228
47 -419 149 -580 309 -436 437 -436 1136 0 1572 186 186 429 300 686 324 83 7
112 6 236 -5z"/>
<path d="M2509 4061 c-13 -10 -73 -117 -133 -238 l-109 -220 -250 -36 c-281
-41 -297 -47 -297 -116 0 -33 14 -50 185 -221 l184 -185 -39 -225 c-47 -268
-48 -289 -17 -318 43 -40 75 -31 310 92 l218 114 217 -114 c236 -124 270 -134
310 -91 30 31 28 52 -18 317 l-39 225 184 185 c171 171 185 188 185 221 0 25
-7 42 -24 58 -21 20 -56 27 -274 58 l-249 36 -109 220 c-60 121 -120 228 -133
238 -13 10 -36 19 -51 19 -15 0 -38 -9 -51 -19z m247 -609 c16 -6 94 -20 174
-32 80 -11 158 -23 173 -26 27 -6 23 -10 -104 -132 -72 -69 -135 -136 -140
-150 -6 -16 0 -75 21 -195 16 -94 30 -177 30 -184 0 -8 -67 22 -163 72 -90 47
-174 85 -187 85 -13 0 -97 -38 -187 -85 -96 -50 -163 -80 -163 -72 0 7 14 90
30 184 21 119 27 179 21 195 -5 13 -68 81 -140 150 -126 121 -130 127 -104
132 16 3 93 15 173 26 80 12 158 26 173 32 23 9 43 41 113 180 l85 169 83
-169 c70 -140 89 -171 112 -180z"/>
</g>
</svg>
