<?xml version="1.0" standalone="no"?>
<!DOCTYPE svg PUBLIC "-//W3C//DTD SVG 20010904//EN"
 "http://www.w3.org/TR/2001/REC-SVG-20010904/DTD/svg10.dtd">
<svg version="1.0" xmlns="http://www.w3.org/2000/svg"
 width="512.000000pt" height="512.000000pt" viewBox="0 0 512.000000 512.000000"
 preserveAspectRatio="xMidYMid meet">
<metadata>
Created by potrace 1.16, written by Peter Selinger 2001-2019
</metadata>
<g transform="translate(0.000000,512.000000) scale(0.100000,-0.100000)"
fill="#000000" stroke="none">
<path d="M2345 5114 c-16 -3 -151 -23 -300 -45 -692 -102 -1326 -229 -1450
-289 -22 -11 -51 -36 -65 -57 l-25 -37 -3 -1315 c-2 -910 0 -1350 8 -1426 33
-330 150 -650 339 -931 327 -487 835 -811 1558 -993 121 -31 203 -28 363 14
1025 269 1650 878 1823 1775 l22 115 0 1381 0 1380 -25 37 c-36 52 -76 70
-260 116 -287 71 -644 137 -1224 228 -268 42 -308 45 -511 48 -121 2 -233 1
-250 -1z m615 -190 c629 -90 1389 -236 1481 -285 19 -9 19 -43 19 -1307 0
-845 -4 -1327 -10 -1382 -16 -122 -44 -250 -80 -365 -214 -666 -742 -1131
-1556 -1371 -219 -65 -282 -65 -485 -6 -475 137 -833 336 -1115 617 -302 301
-490 690 -544 1125 -6 55 -10 537 -10 1382 0 1247 1 1298 18 1307 29 15 279
76 472 115 380 77 1111 192 1290 205 151 10 244 4 520 -35z"/>
<path d="M2440 4689 c-247 -19 -1010 -149 -1315 -225 -174 -43 -203 -57 -233
-115 l-23 -44 4 -1165 c3 -1147 4 -1166 25 -1260 42 -188 84 -307 161 -458
231 -449 654 -769 1246 -942 176 -52 241 -60 334 -44 167 29 440 124 625 218
512 260 833 670 957 1221 l23 100 3 1165 4 1165 -23 44 c-30 58 -59 72 -233
115 -155 39 -494 106 -532 106 -33 0 -73 -42 -73 -78 0 -62 15 -69 280 -122
135 -27 283 -60 330 -72 l85 -23 0 -1130 c0 -1054 -1 -1136 -18 -1220 -29
-139 -73 -269 -138 -400 -219 -444 -645 -759 -1236 -911 l-133 -34 -132 34
c-758 195 -1242 657 -1375 1311 -17 84 -18 166 -18 1220 l0 1130 130 33 c267
67 1016 197 1289 222 121 12 222 4 478 -35 92 -14 182 -25 201 -25 65 0 101
78 59 130 -16 20 -44 26 -247 55 -262 38 -370 45 -505 34z"/>
<path d="M2952 4060 c-82 -15 -158 -45 -239 -96 -128 -80 -184 -80 -315 -3
-130 77 -191 94 -333 94 -99 0 -132 -4 -185 -23 -267 -92 -439 -343 -469 -681
-22 -253 52 -477 244 -741 l62 -85 -5 -105 c-4 -97 -3 -106 17 -124 27 -25 88
-23 114 2 24 24 43 213 27 272 -5 20 -41 80 -80 131 -170 230 -244 452 -219
654 13 100 59 241 104 315 40 66 125 149 181 178 144 73 314 67 447 -18 164
-103 304 -115 443 -34 218 127 340 143 499 65 183 -90 308 -329 307 -586 -1
-191 -65 -354 -229 -584 -29 -41 -58 -92 -64 -114 -10 -38 -3 -136 42 -532 22
-198 -42 -383 -164 -472 -38 -28 -97 -31 -119 -5 -39 44 -43 64 -45 255 -2
200 -13 266 -58 364 -32 70 -102 138 -183 176 -61 29 -75 32 -162 31 -119 0
-187 -25 -263 -94 -112 -103 -140 -196 -141 -475 -1 -182 -3 -203 -22 -235
-30 -52 -64 -60 -121 -30 -116 61 -192 224 -193 408 0 87 -17 112 -79 112 -60
0 -81 -33 -81 -124 1 -184 62 -345 174 -460 134 -137 289 -154 401 -42 66 67
79 122 80 356 1 218 13 279 68 345 69 84 197 107 290 52 100 -59 125 -136 130
-402 5 -220 16 -268 77 -338 52 -59 108 -81 192 -75 85 6 131 29 208 107 76
77 132 177 156 277 19 82 22 264 5 379 -6 44 -18 148 -26 230 l-15 150 22 30
c221 298 308 552 278 804 -41 339 -221 592 -479 671 -75 24 -205 33 -279 20z"/>
</g>
</svg>
