<?xml version="1.0" standalone="no"?>
<!DOCTYPE svg PUBLIC "-//W3C//DTD SVG 20010904//EN"
 "http://www.w3.org/TR/2001/REC-SVG-20010904/DTD/svg10.dtd">
<svg version="1.0" xmlns="http://www.w3.org/2000/svg"
 width="512.000000pt" height="512.000000pt" viewBox="0 0 512.000000 512.000000"
 preserveAspectRatio="xMidYMid meet">
<metadata>
Created by potrace 1.16, written by Peter Selinger 2001-2019
</metadata>
<g transform="translate(0.000000,512.000000) scale(0.100000,-0.100000)"
fill="#000000" stroke="none">
<path d="M1105 5104 c-117 -21 -199 -48 -300 -97 -309 -151 -488 -426 -568
-872 -17 -100 -21 -160 -21 -355 -1 -252 5 -307 54 -496 45 -172 101 -306 256
-611 307 -606 311 -622 369 -1432 35 -489 80 -847 121 -963 37 -105 122 -199
222 -246 51 -24 68 -27 172 -27 104 0 121 3 172 27 67 31 149 105 183 163 13
22 49 114 80 205 84 243 137 374 235 575 175 357 340 545 480 545 140 0 305
-187 480 -545 97 -199 150 -328 235 -575 31 -91 67 -183 80 -205 34 -58 116
-132 183 -163 51 -24 68 -27 172 -27 104 0 121 3 173 27 78 37 160 117 197
192 56 115 122 587 150 1066 15 255 37 497 56 610 35 206 89 345 279 715 260
506 330 725 342 1071 25 736 -229 1214 -731 1378 -145 48 -254 59 -514 53
-285 -6 -377 -20 -718 -109 l-239 -62 -165 0 c-154 0 -171 2 -255 29 -264 83
-362 106 -539 130 -153 20 -528 19 -641 -1z m675 -228 c117 -21 222 -47 364
-91 158 -50 250 -65 401 -65 158 0 231 12 500 85 286 76 256 77 288 -5 75
-192 91 -337 47 -425 -46 -92 -137 -129 -315 -127 -154 1 -292 31 -540 115
l-210 71 -115 1 c-132 0 -167 -12 -301 -103 -116 -78 -153 -84 -329 -52 -47 8
-81 8 -127 0 -81 -14 -119 -30 -235 -101 -156 -96 -204 -113 -328 -114 -99 0
-109 2 -172 33 -44 21 -89 56 -137 104 -82 82 -81 74 -26 201 118 275 314 430
609 482 110 19 493 13 626 -9z m2115 13 c381 -47 612 -232 722 -579 22 -71 51
-220 59 -301 l6 -74 -158 -1 c-121 -1 -183 -6 -262 -23 -338 -71 -582 -234
-707 -473 -82 -155 -114 -315 -96 -468 14 -113 39 -185 110 -323 95 -185 111
-299 69 -485 -32 -138 -32 -302 0 -394 45 -131 156 -265 310 -373 55 -38 70
-55 67 -70 -2 -11 -6 -67 -10 -125 -13 -230 -85 -761 -115 -856 -20 -61 -111
-124 -180 -124 -39 0 -98 24 -128 53 -34 32 -48 61 -108 239 -230 676 -512
1113 -783 1211 -75 27 -187 27 -262 0 -274 -99 -550 -528 -788 -1227 -27 -79
-56 -157 -64 -172 -31 -60 -104 -104 -170 -104 -45 0 -115 38 -149 80 -49 62
-92 334 -128 796 -11 148 -27 359 -36 469 -39 519 -72 630 -358 1198 -220 437
-268 578 -296 867 -10 100 -5 370 6 370 2 0 25 -16 51 -36 63 -49 172 -100
241 -115 33 -7 104 -9 172 -7 146 6 235 35 386 124 60 36 133 72 162 80 49 15
59 15 117 0 89 -22 208 -21 286 4 38 12 100 45 159 85 53 37 115 70 136 75 56
13 136 -4 292 -61 313 -116 603 -157 806 -114 201 43 333 169 367 350 21 115
-9 336 -65 469 -8 19 -12 37 -8 40 10 10 253 6 347 -5z m793 -1184 c6 -5 -18
-195 -34 -274 -36 -178 -133 -418 -304 -746 -204 -394 -270 -589 -300 -890 -7
-66 -16 -133 -20 -150 l-7 -30 -66 67 c-128 130 -148 213 -103 429 31 149 35
310 11 404 -9 33 -36 105 -62 160 -120 263 -117 254 -121 351 -8 167 51 316
173 440 135 136 338 223 574 243 73 7 249 4 259 -4z"/>
<path d="M1243 4799 c-75 -21 -99 -120 -44 -181 26 -29 35 -33 81 -33 46 0 55
4 81 33 78 87 -3 213 -118 181z"/>
<path d="M1775 4690 c-71 -29 -93 -125 -41 -179 89 -93 236 7 181 122 -25 53
-89 79 -140 57z"/>
<path d="M2928 4575 c-37 -20 -48 -44 -48 -100 0 -38 5 -52 29 -76 42 -41 107
-41 153 0 29 26 33 35 33 80 0 41 -5 55 -26 77 -33 33 -101 42 -141 19z"/>
<path d="M897 4469 c-25 -14 -47 -63 -47 -102 0 -97 131 -141 194 -66 41 49
28 141 -23 169 -25 13 -101 13 -124 -1z"/>
<path d="M1267 3546 c-60 -16 -92 -39 -139 -101 -58 -77 -72 -146 -65 -323 21
-514 210 -824 542 -887 96 -19 153 -19 233 0 82 19 116 38 241 129 131 96 159
105 243 80 86 -25 234 -25 308 0 126 42 233 130 286 234 26 50 29 68 29 147 0
128 -17 160 -174 315 -335 332 -607 446 -936 395 -114 -18 -116 -18 -262 4
-166 24 -236 26 -306 7z m273 -234 c107 -17 252 -19 320 -3 65 15 187 13 255
-4 83 -21 227 -93 310 -156 95 -72 294 -267 301 -296 22 -85 -91 -183 -227
-199 -41 -4 -69 -1 -114 14 -89 30 -151 35 -217 17 -68 -17 -105 -40 -208
-124 -100 -82 -148 -105 -235 -109 -102 -5 -172 23 -250 102 -73 73 -117 158
-150 290 -44 174 -54 407 -19 463 22 35 52 36 234 5z"/>
<path d="M1519 3171 c-41 -42 -41 -107 0 -153 26 -29 35 -33 81 -33 46 0 55 4
81 33 33 37 38 85 14 132 -20 38 -43 50 -100 50 -38 0 -52 -5 -76 -29z"/>
<path d="M2074 3082 c-96 -60 -52 -202 63 -202 134 0 141 200 8 216 -29 4 -49
0 -71 -14z"/>
<path d="M1783 2883 c-33 -6 -72 -51 -79 -90 -21 -109 119 -176 190 -92 38 45
36 110 -3 150 -16 16 -36 29 -44 29 -9 0 -21 2 -29 4 -7 2 -23 1 -35 -1z"/>
<path d="M4296 3492 c-34 -37 -43 -89 -22 -130 35 -67 122 -79 178 -26 23 23
28 36 28 77 0 40 -5 53 -29 78 -25 24 -38 29 -78 29 -41 0 -54 -5 -77 -28z"/>
<path d="M3888 3294 c-36 -19 -48 -43 -48 -94 0 -52 13 -76 50 -95 64 -33 133
-9 160 54 40 98 -67 187 -162 135z"/>
<path d="M4230 3093 c-8 -3 -27 -17 -42 -31 -23 -21 -28 -34 -28 -75 0 -40 5
-53 29 -78 25 -24 38 -29 78 -29 41 0 54 5 77 28 82 86 -4 225 -114 185z"/>
<path d="M3994 2762 c-61 -39 -69 -120 -17 -174 22 -23 35 -28 76 -28 40 0 53
5 78 29 24 25 29 38 29 78 0 41 -5 54 -29 77 -38 37 -95 44 -137 18z"/>
</g>
</svg>
