<?xml version="1.0" standalone="no"?>
<!DOCTYPE svg PUBLIC "-//W3C//DTD SVG 20010904//EN"
 "http://www.w3.org/TR/2001/REC-SVG-20010904/DTD/svg10.dtd">
<svg version="1.0" xmlns="http://www.w3.org/2000/svg"
 width="512.000000pt" height="512.000000pt" viewBox="0 0 512.000000 512.000000"
 preserveAspectRatio="xMidYMid meet">
<metadata>
Created by potrace 1.16, written by Peter Selinger 2001-2019
</metadata>
<g transform="translate(0.000000,512.000000) scale(0.100000,-0.100000)"
fill="#000000" stroke="none">
<path d="M3985 4688 c-16 -6 -74 -39 -127 -74 -124 -81 -144 -90 -220 -111
-57 -15 -186 -17 -1343 -22 l-1280 -6 -80 -28 c-247 -87 -422 -275 -491 -528
-24 -87 -25 -279 -1 -369 9 -36 38 -108 64 -160 39 -80 61 -109 137 -186 77
-76 106 -98 186 -137 179 -88 64 -82 1465 -82 1189 0 1243 1 1315 19 158 41
276 105 387 210 98 92 171 198 214 310 56 145 60 191 57 634 l-3 400 -30 44
c-17 23 -50 53 -73 66 -48 27 -133 37 -177 20z"/>
<path d="M620 2539 c-95 -43 -155 -111 -184 -209 -14 -46 -16 -126 -16 -582 0
-314 -4 -528 -9 -528 -5 0 -34 -23 -65 -51 -39 -36 -67 -74 -93 -127 -37 -74
-38 -79 -38 -186 0 -104 2 -115 32 -179 61 -128 180 -222 312 -247 74 -14
3928 -14 4002 0 132 25 252 119 311 245 23 51 31 84 35 148 12 184 -74 335
-235 414 l-76 38 -163 3 -162 4 -3 526 -3 527 -27 51 c-34 65 -115 138 -175
158 -67 23 -187 21 -243 -5 -95 -43 -155 -111 -184 -209 -14 -46 -16 -124 -16
-552 l0 -498 -210 0 -210 0 0 515 c0 497 -1 516 -21 570 -97 260 -501 260
-598 0 -20 -54 -21 -73 -21 -570 l0 -515 -210 0 -210 0 0 497 c0 553 -1 567
-66 656 -38 52 -107 101 -164 117 -53 15 -161 12 -213 -6 -60 -20 -141 -93
-175 -158 l-27 -51 -3 -527 -3 -528 -209 0 -209 0 -3 528 -3 527 -27 51 c-34
65 -115 138 -175 158 -67 23 -187 21 -243 -5z"/>
</g>
</svg>
