<?xml version="1.0" standalone="no"?>
<!DOCTYPE svg PUBLIC "-//W3C//DTD SVG 20010904//EN"
 "http://www.w3.org/TR/2001/REC-SVG-20010904/DTD/svg10.dtd">
<svg version="1.0" xmlns="http://www.w3.org/2000/svg"
 width="512.000000pt" height="512.000000pt" viewBox="0 0 512.000000 512.000000"
 preserveAspectRatio="xMidYMid meet">
<metadata>
Created by potrace 1.16, written by Peter Selinger 2001-2019
</metadata>
<g transform="translate(0.000000,512.000000) scale(0.100000,-0.100000)"
fill="#000000" stroke="none">
<path d="M1441 5105 c-136 -30 -275 -91 -386 -170 -67 -48 -195 -177 -242
-245 -50 -74 -111 -204 -139 -297 -36 -119 -45 -338 -20 -463 10 -46 100 -340
200 -654 l183 -571 6 -165 c19 -469 123 -976 275 -1330 114 -266 503 -1089
530 -1121 100 -119 301 -120 415 -3 40 41 77 125 77 174 0 16 -15 91 -34 167
-80 328 -121 658 -113 923 6 199 23 290 72 396 69 149 194 219 349 194 178
-29 274 -179 307 -480 25 -232 -18 -645 -107 -1029 -39 -167 -39 -202 -4 -272
54 -104 141 -159 254 -159 88 0 157 29 207 88 22 26 117 220 278 568 135 291
260 567 279 614 133 330 233 840 249 1269 l6 166 183 571 c100 314 190 608
200 654 25 125 16 344 -20 463 -102 342 -361 597 -706 697 -103 30 -326 39
-422 16 -143 -33 -285 -132 -380 -263 -63 -87 -102 -127 -158 -163 -154 -97
-386 -73 -507 52 -17 18 -59 69 -92 113 -34 44 -87 102 -119 128 -67 56 -194
121 -270 136 -73 15 -273 12 -351 -4z m257 -160 c1 -1 -4 -31 -12 -66 -33
-142 -29 -293 9 -444 45 -177 181 -373 332 -481 76 -55 225 -126 308 -149 95
-25 283 -31 389 -11 276 52 499 218 631 469 99 187 128 414 79 608 -8 31 -14
61 -14 67 0 16 46 20 138 11 338 -34 617 -263 722 -594 28 -87 39 -293 21
-386 -7 -33 -96 -320 -198 -637 l-185 -577 -9 -190 c-21 -444 -107 -897 -231
-1210 -47 -119 -514 -1124 -535 -1153 -13 -17 -31 -25 -64 -29 -56 -6 -90 12
-113 62 -15 31 -14 40 13 156 35 145 73 361 97 544 24 183 24 517 0 645 -50
270 -158 438 -323 500 -129 49 -294 45 -409 -9 -154 -72 -252 -224 -301 -467
-25 -125 -25 -516 0 -694 26 -183 64 -388 98 -527 28 -114 29 -124 14 -152
-21 -41 -53 -61 -97 -61 -70 0 -81 18 -309 510 -325 700 -350 764 -419 1037
-69 275 -147 883 -112 883 4 0 36 -9 72 -21 106 -33 335 -88 480 -114 550 -99
1071 -96 1625 10 149 29 178 44 183 98 7 77 -35 104 -130 86 -32 -6 -61 -10
-63 -7 -2 2 34 101 80 219 47 117 85 226 85 240 0 33 -45 79 -77 79 -27 0 -64
-17 -75 -34 -5 -6 -55 -131 -113 -278 -119 -300 -94 -269 -235 -287 -274 -36
-652 -38 -930 -6 -210 25 -179 -3 -276 245 -129 329 -132 336 -160 349 -39 17
-69 13 -98 -14 -17 -15 -26 -34 -26 -54 0 -16 38 -125 84 -243 47 -117 81
-214 77 -216 -23 -8 -472 111 -519 137 -15 8 -316 927 -367 1121 -28 105 -35
260 -15 360 70 363 371 640 735 679 68 7 132 6 143 -4z m260 -108 l26 -28 -78
-77 -77 -77 6 70 c6 63 18 126 30 163 6 17 53 -9 93 -51z m1322 -65 c0 -33
-13 -49 -185 -223 -168 -169 -185 -189 -185 -221 0 -57 52 -97 108 -83 14 3
73 52 130 108 106 104 116 105 69 12 -85 -170 -253 -322 -407 -370 -23 -7 -23
-6 8 30 44 50 54 77 40 116 -14 40 -64 64 -105 48 -15 -5 -80 -61 -143 -124
l-115 -114 -44 6 -43 6 428 428 c235 235 431 426 436 423 4 -3 8 -22 8 -42z
m-1150 -146 c0 -6 -53 -64 -117 -128 l-117 -117 -13 31 -14 32 113 113 c105
106 113 111 130 96 10 -9 18 -21 18 -27z m187 -128 l34 -12 -157 -157 -157
-157 -23 27 -23 26 142 143 c78 78 144 142 146 142 3 0 20 -5 38 -12z m127
-259 l-211 -211 -33 17 -33 17 194 194 194 194 50 0 50 0 -211 -211z"/>
</g>
</svg>
