<?xml version="1.0" standalone="no"?>
<!DOCTYPE svg PUBLIC "-//W3C//DTD SVG 20010904//EN"
 "http://www.w3.org/TR/2001/REC-SVG-20010904/DTD/svg10.dtd">
<svg version="1.0" xmlns="http://www.w3.org/2000/svg"
 width="512.000000pt" height="512.000000pt" viewBox="0 0 512.000000 512.000000"
 preserveAspectRatio="xMidYMid meet">

<g transform="translate(0.000000,512.000000) scale(0.100000,-0.100000)"
fill="#000000" stroke="none">
<path d="M3696 5097 c-17 -17 -36 -76 -80 -254 l-58 -232 -53 24 c-81 35 -209
65 -315 71 -225 14 -398 -69 -539 -259 -76 -103 -113 -135 -199 -175 -49 -23
-70 -27 -152 -27 -82 0 -103 4 -152 27 -85 40 -122 72 -189 165 -141 195 -322
283 -550 269 -397 -25 -724 -286 -840 -671 -30 -98 -38 -331 -15 -430 9 -38
91 -302 181 -585 l164 -515 11 -180 c27 -472 113 -884 253 -1210 19 -44 121
-267 227 -495 106 -228 200 -433 210 -455 89 -206 366 -219 464 -23 30 61 33
120 11 197 -9 28 -29 116 -45 194 -134 660 -87 1124 124 1227 90 43 203 43
290 -1 53 -26 108 -95 141 -177 88 -216 69 -699 -46 -1181 -16 -68 -29 -140
-29 -160 1 -76 65 -171 145 -214 56 -30 164 -30 220 0 80 42 95 69 325 568
254 550 261 566 307 700 102 301 165 667 188 1095 6 114 8 119 162 600 201
631 205 643 204 800 0 90 -5 147 -20 205 -11 44 -18 82 -16 83 2 2 120 33 262
69 142 35 266 72 275 80 21 19 24 72 5 97 -9 12 -100 39 -306 91 -161 40 -297
77 -301 82 -4 4 -38 132 -75 283 -37 151 -74 287 -81 301 -23 45 -72 52 -108
16z m94 -538 c34 -134 47 -173 64 -184 11 -8 77 -28 146 -45 234 -58 229 -47
40 -95 -91 -23 -173 -46 -182 -50 -22 -9 -24 -14 -73 -205 l-42 -165 -12 45
c-18 68 -28 87 -54 105 -32 20 -73 11 -94 -22 -16 -24 -14 -36 38 -247 33
-137 61 -227 72 -238 21 -22 75 -23 98 -2 11 10 35 87 65 210 27 107 53 194
58 194 12 0 1 -191 -14 -245 -6 -22 -87 -278 -180 -570 l-168 -530 -6 -155
c-17 -425 -112 -894 -242 -1188 -14 -31 -122 -267 -240 -523 -230 -496 -232
-499 -301 -499 -29 0 -68 21 -90 50 -15 19 -16 73 -3 120 52 179 109 557 117
780 13 352 -46 581 -186 721 -93 93 -147 113 -301 113 -130 0 -172 -12 -258
-71 -96 -66 -172 -201 -209 -373 -15 -69 -18 -129 -18 -325 1 -293 24 -468
108 -821 20 -86 22 -106 12 -131 -28 -65 -112 -84 -164 -35 -21 19 -94 168
-246 497 -119 259 -234 513 -256 566 -74 183 -138 445 -178 724 -20 139 -45
425 -38 431 2 2 57 -12 123 -31 230 -68 516 -121 784 -145 179 -17 546 -14
723 5 163 17 420 58 488 78 52 15 76 51 61 95 -14 43 -51 56 -117 41 -30 -7
-58 -10 -61 -6 -3 3 27 88 66 189 90 228 92 235 78 262 -25 47 -70 59 -107 29
-13 -11 -59 -115 -119 -268 l-99 -250 -89 -12 c-290 -39 -648 -40 -933 -5
l-133 17 -99 250 c-61 155 -107 257 -120 268 -52 42 -118 -2 -110 -73 1 -8 36
-102 78 -208 42 -106 74 -195 71 -198 -14 -13 -475 109 -498 132 -5 5 -83 241
-174 525 -114 356 -168 542 -177 602 -50 358 180 716 536 834 70 23 97 27 215
27 131 1 137 0 201 -30 77 -37 136 -87 192 -164 132 -182 271 -261 463 -262
198 -1 338 77 477 267 94 129 193 185 343 193 106 5 186 -7 293 -45 60 -21 71
-28 55 -35 -10 -4 -129 -35 -264 -68 -135 -34 -255 -68 -267 -76 -47 -30 -41
-96 10 -119 40 -19 468 -125 501 -125 27 0 66 42 66 71 0 50 -26 67 -143 95
-43 10 -72 21 -65 25 7 3 81 23 165 44 109 27 157 43 171 58 13 14 33 70 52
147 44 177 50 200 54 200 2 0 23 -77 46 -171z"/>
</g>
</svg>
