<?xml version="1.0" standalone="no"?>
<!DOCTYPE svg PUBLIC "-//W3C//DTD SVG 20010904//EN"
 "http://www.w3.org/TR/2001/REC-SVG-20010904/DTD/svg10.dtd">
<svg version="1.0" xmlns="http://www.w3.org/2000/svg"
 width="512.000000pt" height="512.000000pt" viewBox="0 0 512.000000 512.000000"
 preserveAspectRatio="xMidYMid meet">
<metadata>
Created by potrace 1.16, written by Peter Selinger 2001-2019
</metadata>
<g transform="translate(0.000000,512.000000) scale(0.100000,-0.100000)"
fill="#000000" stroke="none">
<path d="M1420 5105 c-209 -45 -374 -134 -523 -282 -162 -161 -258 -349 -292
-573 -36 -232 -25 -282 208 -1013 107 -334 203 -617 213 -628 29 -33 339 -125
617 -184 l77 -17 0 -199 c0 -132 -4 -199 -10 -199 -6 0 -22 -11 -35 -25 -37
-36 -33 -80 10 -121 l35 -33 0 -145 c0 -120 -3 -146 -14 -146 -8 0 -24 -12
-36 -27 -16 -21 -20 -37 -16 -62 6 -36 31 -71 53 -71 10 0 13 -32 13 -154 0
-143 -1 -154 -19 -159 -58 -15 -65 -114 -11 -145 l28 -16 4 -206 3 -205 133
-211 c83 -133 141 -215 156 -222 13 -6 82 -21 152 -34 114 -20 160 -23 394
-23 233 0 281 3 395 24 139 25 162 33 185 65 36 50 234 374 246 403 10 23 14
85 14 220 l0 188 29 17 c55 31 48 130 -10 145 -18 5 -19 16 -19 157 l0 151 29
17 c55 31 48 130 -10 145 -18 5 -19 16 -19 152 l0 147 30 22 c54 40 48 129
-10 147 -19 6 -20 14 -20 205 l0 198 78 17 c276 59 587 151 616 184 10 11 106
294 213 628 233 731 244 781 208 1013 -34 224 -130 412 -292 573 -151 150
-316 238 -525 281 -96 20 -282 21 -363 1 -165 -39 -294 -132 -410 -298 -56
-80 -110 -127 -188 -162 -111 -51 -243 -51 -354 0 -78 35 -132 82 -188 162
-115 163 -247 260 -408 298 -78 19 -280 18 -367 0z m402 -197 c92 -43 148 -93
238 -213 105 -140 222 -217 376 -250 130 -28 260 -12 383 45 97 46 164 103
241 205 90 120 146 170 238 213 65 30 91 36 167 40 443 23 834 -315 885 -767
20 -176 21 -172 -238 -981 l-150 -465 -58 -18 c-217 -67 -489 -135 -500 -124
-2 2 34 102 81 221 47 119 85 232 85 250 0 63 -77 100 -133 64 -17 -12 -50
-85 -132 -293 -83 -211 -114 -279 -130 -285 -11 -4 -92 -16 -180 -26 -287 -33
-728 -24 -1040 22 l-40 6 -94 241 c-118 302 -129 325 -154 339 -58 31 -127 -8
-127 -71 0 -22 34 -122 85 -250 47 -118 84 -216 81 -218 -9 -9 -279 59 -490
124 l-58 18 -150 465 c-259 809 -258 805 -238 981 38 334 261 613 579 724 101
36 161 44 286 41 102 -2 115 -5 187 -38z m263 -2555 c114 -13 229 -17 475 -17
246 0 361 4 475 17 83 10 158 20 168 23 16 5 17 -9 17 -194 l0 -200 -52 -12
c-206 -44 -311 -54 -598 -54 -188 -1 -316 4 -375 12 -109 16 -254 41 -277 48
-16 5 -18 23 -18 205 0 186 1 200 18 195 9 -3 85 -13 167 -23z m10 -583 c329
-50 709 -44 1029 15 43 8 82 15 87 15 5 0 9 -65 9 -144 0 -141 0 -144 -22
-149 -61 -15 -285 -48 -383 -57 -261 -24 -614 -3 -862 50 l-53 12 0 145 0 146
33 -7 c17 -4 91 -16 162 -26z m-99 -454 c369 -67 769 -64 1187 10 l37 7 0
-145 0 -145 -82 -16 c-212 -41 -321 -51 -573 -51 -254 -1 -337 6 -552 46
l-113 20 0 144 c0 79 4 144 9 144 5 0 44 -6 87 -14z m10 -470 c200 -37 263
-41 559 -40 303 0 330 2 618 50 l37 7 0 -156 0 -155 -101 -163 c-56 -90 -103
-166 -104 -167 -8 -8 -89 -23 -205 -37 -203 -24 -402 -18 -658 21 -41 6 -45
10 -98 96 -30 50 -54 92 -52 94 2 2 73 -6 158 -18 123 -16 207 -20 405 -20
138 0 263 4 280 9 40 12 69 63 60 103 -13 60 -31 63 -283 61 -125 -1 -278 3
-340 9 -105 10 -325 44 -364 56 -16 5 -18 20 -18 135 0 103 3 129 14 129 8 0
49 -6 92 -14z"/>
</g>
</svg>
