<?xml version="1.0" standalone="no"?>
<!DOCTYPE svg PUBLIC "-//W3C//DTD SVG 20010904//EN"
 "http://www.w3.org/TR/2001/REC-SVG-20010904/DTD/svg10.dtd">
<svg version="1.0" xmlns="http://www.w3.org/2000/svg"
 width="512.000000pt" height="512.000000pt" viewBox="0 0 512.000000 512.000000"
 preserveAspectRatio="xMidYMid meet">
<metadata>
Created by potrace 1.16, written by Peter Selinger 2001-2019
</metadata>
<g transform="translate(0.000000,512.000000) scale(0.100000,-0.100000)"
fill="#000000" stroke="none">
<path d="M1480 5113 c-129 -22 -280 -82 -395 -158 -84 -56 -217 -186 -273
-267 -50 -73 -120 -225 -143 -313 -31 -113 -37 -332 -14 -446 9 -45 99 -339
199 -653 l183 -571 6 -166 c17 -449 119 -953 264 -1301 99 -237 512 -1114 542
-1149 17 -21 56 -50 86 -64 48 -24 64 -27 132 -23 91 4 135 23 192 81 43 43
81 126 81 178 0 17 -13 83 -29 147 -80 313 -114 577 -115 867 -1 262 11 347
69 471 69 149 194 219 349 194 178 -29 274 -179 307 -480 24 -229 -19 -653
-106 -1025 -19 -82 -35 -159 -35 -172 0 -39 39 -128 75 -170 103 -120 304
-126 412 -12 22 23 105 192 264 534 266 574 307 668 354 814 106 330 179 749
192 1110 l6 166 183 573 c101 316 191 610 200 654 22 111 15 332 -15 443 -23
88 -93 240 -143 313 -56 81 -189 211 -273 267 -163 107 -308 154 -502 162
-160 7 -228 -5 -338 -56 -106 -50 -173 -107 -255 -216 -101 -133 -152 -175
-252 -206 -112 -35 -265 -17 -350 41 -56 39 -87 72 -158 165 -37 50 -92 110
-121 134 -63 52 -192 114 -267 130 -50 10 -258 13 -312 4z m258 -168 c64 -8
164 -57 218 -106 26 -24 71 -77 101 -117 70 -93 112 -135 185 -183 101 -65
173 -84 318 -84 145 0 217 19 318 84 73 48 115 90 185 183 138 186 275 249
497 227 336 -34 615 -264 720 -594 28 -87 39 -293 21 -386 -7 -33 -96 -320
-198 -637 l-185 -577 -9 -190 c-21 -444 -107 -897 -231 -1210 -18 -44 -143
-320 -279 -614 -184 -400 -254 -540 -273 -554 -15 -11 -29 -17 -32 -15 -4 4
142 528 354 1273 83 292 130 484 139 572 5 46 3 54 -20 77 -36 36 -80 35 -118
-3 -18 -19 -29 -40 -29 -58 0 -15 -4 -34 -9 -42 -7 -10 -10 -8 -16 10 -4 13
-25 54 -46 92 -24 39 -37 72 -33 80 5 6 44 60 87 120 l79 107 25 -20 c34 -27
76 -25 109 3 27 23 27 25 35 198 4 96 11 190 14 209 4 19 88 287 186 595 98
308 183 579 189 603 15 57 15 205 0 267 -18 72 -74 183 -121 238 -102 119
-267 197 -424 200 -112 2 -147 -19 -244 -146 -95 -126 -188 -205 -316 -268
-145 -71 -202 -84 -375 -84 -173 0 -230 13 -375 84 -128 63 -221 142 -316 268
-94 123 -133 148 -234 147 -263 -2 -497 -189 -556 -444 -15 -65 -14 -203 1
-263 6 -23 92 -294 190 -602 186 -583 200 -640 200 -806 0 -171 59 -595 111
-804 11 -44 69 -251 129 -460 207 -724 321 -1137 317 -1142 -11 -10 -48 24
-71 67 -27 51 -451 966 -492 1062 -136 321 -231 796 -253 1263 l-9 190 -185
577 c-102 317 -191 604 -198 637 -18 93 -7 299 21 386 104 327 383 559 715
594 79 8 97 8 183 -4z m-185 -439 c-15 -26 -317 -405 -321 -402 -1 2 2 32 7
66 25 157 130 283 279 336 46 17 44 17 35 0z m2126 -35 c42 -22 117 -94 143
-138 l16 -28 -867 -935 c-636 -685 -885 -947 -932 -980 -121 -84 -216 -193
-291 -335 -41 -79 -37 -83 -62 65 -12 70 -30 212 -31 242 0 7 1975 2126 1983
2127 1 1 20 -8 41 -18z m-1915 -70 c15 -21 54 -65 86 -96 l58 -57 -260 -314
c-144 -173 -264 -314 -268 -314 -3 0 -26 61 -49 134 l-44 135 149 188 c81 103
179 227 217 276 38 48 72 87 76 87 3 0 19 -18 35 -39z m1274 -300 c-212 -231
-1393 -1489 -1396 -1487 -1 2 -7 52 -12 112 -5 60 -16 132 -23 161 l-14 51
474 541 475 541 58 0 c130 0 330 54 445 119 28 16 51 29 53 30 2 1 -25 -30
-60 -68z m-813 -26 c44 -15 86 -29 93 -31 7 -2 -154 -194 -379 -451 -216 -247
-396 -452 -400 -457 -4 -5 -28 56 -53 135 -39 121 -44 145 -32 158 7 9 144
175 305 368 l292 353 47 -24 c26 -13 83 -36 127 -51z m1652 -24 c-2 -21 -37
-138 -76 -259 l-71 -221 -456 -518 c-251 -285 -460 -522 -465 -527 -5 -6 -36
-4 -78 3 -38 7 -119 12 -181 12 l-111 0 33 38 c64 74 1401 1511 1406 1511 2 0
2 -17 -1 -39z m-282 -903 c-69 -203 -105 -346 -105 -415 0 -26 -27 -69 -141
-225 -78 -106 -146 -197 -150 -202 -4 -5 -29 10 -56 34 -26 23 -75 58 -109 78
l-60 36 310 353 c171 194 312 353 313 353 1 0 0 -6 -2 -12z m-922 -783 c150
-17 318 -102 422 -216 95 -103 171 -249 210 -402 l25 -98 -153 -539 c-83 -296
-153 -537 -155 -535 -2 1 4 40 12 86 124 672 60 1173 -173 1357 -137 109 -362
128 -527 47 -209 -102 -314 -360 -314 -771 0 -153 18 -360 45 -531 8 -51 15
-98 14 -105 0 -7 -66 214 -145 492 -142 498 -144 506 -133 558 64 312 274 559
539 636 67 19 192 35 240 30 19 -1 61 -6 93 -9z"/>
</g>
</svg>
