<?xml version="1.0" standalone="no"?>
<!DOCTYPE svg PUBLIC "-//W3C//DTD SVG 20010904//EN"
 "http://www.w3.org/TR/2001/REC-SVG-20010904/DTD/svg10.dtd">
<svg version="1.0" xmlns="http://www.w3.org/2000/svg"
 width="512.000000pt" height="512.000000pt" viewBox="0 0 512.000000 512.000000"
 preserveAspectRatio="xMidYMid meet">
<metadata>
Created by potrace 1.16, written by Peter Selinger 2001-2019
</metadata>
<g transform="translate(0.000000,512.000000) scale(0.100000,-0.100000)"
fill="#000000" stroke="none">
<path d="M2180 5114 c-231 -19 -319 -28 -469 -50 -630 -90 -1121 -276 -1360
-516 -78 -77 -123 -146 -150 -226 -21 -61 -21 -72 -21 -1762 0 -1690 0 -1701
21 -1762 130 -387 797 -675 1809 -780 170 -18 930 -18 1100 0 680 71 1183 214
1506 431 157 104 262 225 303 349 21 61 21 72 21 1762 0 1690 0 1701 -21 1762
-113 338 -669 616 -1469 737 -301 45 -413 53 -825 56 -220 1 -420 1 -445 -1z
m945 -209 c502 -53 892 -148 1194 -291 326 -155 476 -335 415 -503 -49 -137
-235 -284 -492 -390 l-72 -30 25 33 c31 41 53 94 65 159 18 91 -17 147 -91
147 -51 0 -85 -35 -94 -94 -41 -272 -726 -496 -1515 -496 -584 0 -1135 125
-1387 315 -197 148 -155 293 127 439 197 102 485 177 835 218 165 19 724 16
891 -5 170 -21 368 -60 496 -97 131 -38 152 -38 190 0 27 27 30 36 25 71 -3
22 -13 49 -22 59 -45 50 -397 130 -730 166 -208 22 -637 22 -850 -1 -481 -50
-871 -170 -1088 -335 -81 -61 -119 -107 -159 -190 -27 -54 -32 -77 -32 -135 0
-81 23 -156 64 -214 l29 -39 -72 29 c-256 106 -442 253 -491 390 -61 168 89
348 415 503 356 169 798 263 1444 310 126 9 739 -4 880 -19z m-2546 -1253
c322 -190 805 -318 1441 -384 169 -18 911 -18 1080 0 740 76 1299 247 1593
487 l57 46 0 -215 c0 -190 -2 -221 -20 -268 -46 -122 -202 -251 -431 -354
-441 -198 -1047 -304 -1739 -304 -692 0 -1298 106 -1739 304 -229 103 -385
232 -431 354 -18 47 -20 78 -20 268 l0 215 57 -46 c31 -26 100 -72 152 -103z
m-150 -680 c210 -171 579 -316 1031 -406 673 -134 1527 -134 2200 0 452 90
821 235 1031 406 26 21 50 38 53 38 3 0 6 -84 6 -187 0 -179 -1 -191 -25 -241
-144 -311 -854 -567 -1750 -632 -193 -15 -637 -15 -830 0 -896 65 -1606 321
-1750 632 -24 50 -25 62 -25 241 0 103 3 187 6 187 3 0 27 -17 53 -38z m-14
-712 c10 -16 141 -102 225 -147 325 -177 831 -301 1450 -355 187 -16 752 -16
940 0 774 67 1386 251 1680 506 l35 30 3 -200 c1 -109 1 -428 0 -709 l-3 -510
-24 -48 c-126 -255 -656 -482 -1353 -581 -309 -44 -415 -51 -808 -51 -393 0
-499 7 -808 51 -697 99 -1227 326 -1353 581 l-24 48 -3 708 c-2 701 -2 708 17
697 11 -5 23 -15 26 -20z"/>
<path d="M2365 4080 c-205 -31 -346 -108 -375 -207 -44 -145 103 -263 379
-303 122 -18 384 -8 484 19 156 41 243 97 273 176 14 38 15 52 5 85 -26 86
-138 94 -176 13 -54 -114 -478 -151 -710 -62 l-60 22 43 19 c106 47 319 64
529 44 90 -9 91 -8 117 17 34 34 36 95 4 132 -18 21 -40 29 -103 40 -84 15
-323 18 -410 5z"/>
</g>
</svg>
