<?xml version="1.0" standalone="no"?>
<!DOCTYPE svg PUBLIC "-//W3C//DTD SVG 20010904//EN"
 "http://www.w3.org/TR/2001/REC-SVG-20010904/DTD/svg10.dtd">
<svg version="1.0" xmlns="http://www.w3.org/2000/svg"
 width="512.000000pt" height="512.000000pt" viewBox="0 0 512.000000 512.000000"
 preserveAspectRatio="xMidYMid meet">
<metadata>
Created by potrace 1.16, written by Peter Selinger 2001-2019
</metadata>
<g transform="translate(0.000000,512.000000) scale(0.100000,-0.100000)"
fill="#000000" stroke="none">
<path d="M2250 5100 c-11 -11 -20 -29 -20 -40 0 -23 -6 -24 -145 -40 -506 -59
-800 -390 -772 -869 8 -125 26 -201 71 -296 109 -230 376 -442 733 -579 l88
-34 3 -221 c3 -250 7 -239 -78 -196 -87 44 -133 102 -180 229 -46 123 -170
167 -291 105 -44 -22 -73 -63 -90 -124 -15 -50 6 -137 55 -240 45 -93 87 -149
168 -222 99 -89 238 -154 381 -178 l37 -6 0 -202 c0 -111 -5 -219 -11 -240
-13 -47 -63 -106 -106 -123 -24 -10 -87 -14 -235 -14 -112 0 -242 -5 -288 -11
-310 -38 -552 -300 -630 -680 -30 -145 -24 -357 14 -504 78 -300 289 -536 536
-600 97 -25 262 -17 354 19 234 90 403 301 483 603 23 89 26 121 30 333 5 267
11 298 73 354 35 32 92 56 130 56 38 0 95 -24 130 -56 62 -56 68 -87 73 -354
4 -212 7 -244 30 -333 80 -302 249 -513 483 -603 92 -36 257 -44 354 -19 275
71 494 344 555 689 93 534 -201 1041 -635 1095 -46 6 -176 11 -288 11 -148 0
-211 4 -235 14 -43 18 -94 77 -107 125 -7 25 -9 251 -8 666 l3 627 89 34 c355
137 623 349 732 579 45 95 63 171 71 296 28 479 -266 810 -772 869 -139 16
-145 17 -145 40 0 11 -9 29 -20 40 -18 18 -33 20 -138 20 -168 0 -157 21 -157
-290 0 -311 -11 -290 157 -290 105 0 120 2 138 20 11 11 20 26 20 33 0 10 16
11 78 5 207 -22 350 -99 401 -217 27 -63 45 -181 36 -239 -22 -146 -187 -303
-462 -441 -118 -58 -332 -133 -383 -133 -51 0 -265 75 -383 133 -275 138 -440
295 -462 441 -9 58 9 176 36 239 42 96 159 173 311 203 88 18 168 21 168 6 0
-5 9 -19 20 -30 18 -18 33 -20 138 -20 168 0 157 -21 157 290 0 311 11 290
-157 290 -105 0 -120 -2 -138 -20z m150 -270 l0 -140 -25 0 c-14 0 -29 8 -34
19 -6 10 -29 26 -51 35 -34 13 -55 14 -142 6 -273 -28 -451 -126 -529 -294
-38 -82 -63 -232 -55 -326 12 -118 92 -249 221 -360 122 -105 347 -228 548
-299 108 -37 109 -38 79 -50 -17 -7 -45 -23 -62 -36 l-31 -23 -117 45 c-376
142 -642 365 -714 596 -19 60 -22 94 -22 207 0 119 4 145 28 217 52 160 159
283 311 358 84 42 234 82 342 90 112 10 146 21 184 60 19 19 42 35 52 35 15 0
17 -13 17 -140z m389 105 c38 -39 72 -50 184 -60 108 -8 258 -48 342 -90 152
-75 259 -198 311 -358 24 -72 28 -98 28 -217 0 -113 -3 -147 -22 -207 -72
-232 -339 -454 -717 -597 -69 -26 -128 -55 -138 -67 -17 -21 -17 -63 -15 -723
l3 -701 29 -63 c36 -77 105 -143 182 -171 49 -19 78 -21 272 -21 119 0 249 -5
287 -10 296 -43 515 -364 515 -754 -1 -315 -148 -589 -378 -703 -62 -31 -86
-37 -158 -41 -156 -8 -270 41 -391 171 -68 73 -122 162 -154 253 -45 130 -52
182 -58 439 l-6 251 -33 66 c-39 79 -99 137 -177 169 l-54 22 -3 670 -3 669
-22 18 c-12 10 -44 21 -70 25 -81 12 -137 54 -167 127 -52 124 30 251 175 272
56 8 76 28 84 81 l7 40 116 38 c65 20 171 63 237 95 337 164 522 346 557 549
16 96 -7 255 -51 348 -79 169 -255 267 -529 295 -87 8 -108 7 -142 -6 -22 -9
-45 -25 -51 -35 -5 -11 -20 -19 -34 -19 l-25 0 0 140 c0 127 2 140 18 140 9 0
32 -16 51 -35z m-990 -1921 c12 -15 21 -33 21 -41 0 -27 62 -135 103 -180 66
-72 162 -127 260 -147 25 -6 27 -10 27 -56 0 -50 0 -50 -27 -44 -243 53 -394
192 -467 431 -5 15 -1 28 13 42 28 28 45 26 70 -5z m611 -226 c19 -8 43 -18
53 -21 16 -6 17 -45 17 -625 l0 -618 -54 -23 c-79 -32 -139 -90 -178 -169
l-33 -66 -6 -251 c-6 -257 -13 -309 -58 -439 -32 -91 -86 -180 -154 -253 -121
-130 -235 -179 -391 -171 -72 4 -96 10 -158 41 -230 114 -377 388 -378 703 0
390 219 711 515 754 39 5 168 10 287 10 194 0 223 2 272 21 77 28 146 94 182
171 l29 63 3 448 c2 247 6 447 10 445 4 -2 23 -11 42 -20z"/>
<path d="M2523 3280 c-53 -12 -95 -43 -120 -89 -28 -54 -29 -111 -4 -168 60
-130 262 -130 322 0 28 63 25 111 -8 137 -18 14 -37 20 -55 18 -26 -4 -28 -2
-28 32 0 56 -41 83 -107 70z"/>
<path d="M3375 1567 c-77 -26 -130 -60 -192 -123 -191 -195 -251 -576 -137
-876 113 -297 373 -430 611 -313 134 66 243 218 294 411 26 96 31 323 11 419
-45 208 -166 386 -309 457 -52 25 -77 31 -150 34 -56 3 -102 -1 -128 -9z m207
-161 c90 -43 188 -185 223 -320 75 -297 -50 -643 -256 -711 -204 -68 -409 191
-409 516 0 54 5 122 11 151 35 175 133 320 249 373 44 19 132 15 182 -9z"/>
<path d="M1529 1567 c-170 -48 -319 -242 -371 -482 -20 -96 -15 -323 11 -419
86 -321 318 -504 561 -442 79 20 133 51 194 110 134 131 207 330 207 567 0
293 -131 549 -327 641 -56 26 -83 32 -149 35 -45 1 -100 -3 -126 -10z m188
-152 c117 -49 216 -196 252 -373 6 -29 11 -97 11 -151 0 -268 -139 -498 -318
-527 -91 -14 -208 60 -276 175 -159 272 -108 672 106 836 73 55 153 70 225 40z"/>
</g>
</svg>
