<?xml version="1.0" standalone="no"?>
<!DOCTYPE svg PUBLIC "-//W3C//DTD SVG 20010904//EN"
 "http://www.w3.org/TR/2001/REC-SVG-20010904/DTD/svg10.dtd">
<svg version="1.0" xmlns="http://www.w3.org/2000/svg"
 width="512.000000pt" height="512.000000pt" viewBox="0 0 512.000000 512.000000"
 preserveAspectRatio="xMidYMid meet">
<metadata>
Created by potrace 1.16, written by Peter Selinger 2001-2019
</metadata>
<g transform="translate(0.000000,512.000000) scale(0.100000,-0.100000)"
fill="#000000" stroke="none">
<path d="M325 4126 c-126 -31 -233 -117 -287 -233 -28 -59 -33 -81 -36 -163
-2 -89 12 -169 222 -1269 212 -1109 226 -1178 260 -1247 60 -121 171 -201 308
-224 87 -14 3449 -14 3536 0 137 23 248 103 308 224 34 69 48 138 260 1247
210 1100 224 1180 222 1269 -3 82 -8 104 -36 163 -55 119 -169 208 -300 236
-79 17 -4388 14 -4457 -3z m306 -224 c-30 -58 -43 -120 -42 -197 0 -71 4 -87
342 -1588 73 -322 119 -508 137 -545 46 -100 152 -188 267 -224 17 -5 107 -13
200 -17 162 -7 173 -8 223 -36 46 -25 112 -89 112 -109 0 -12 -1031 -7 -1072
6 -50 15 -124 80 -144 126 -19 47 -455 2334 -456 2393 0 100 68 188 172 220
14 4 82 8 153 8 l127 1 -19 -38z m1023 -4 c12 -94 219 -2419 214 -2423 -2 -2
-33 8 -68 22 -58 24 -83 27 -235 33 -121 5 -180 11 -205 22 -42 19 -105 82
-120 122 -22 60 -452 1993 -452 2036 -1 102 67 189 172 221 14 4 174 8 356 8
l332 1 6 -42z m1612 0 c-3 -24 -8 -79 -12 -123 -6 -80 -6 -81 24 -113 38 -40
96 -45 137 -9 27 23 29 33 50 230 l7 58 346 -3 c333 -3 349 -4 387 -25 80 -43
127 -118 127 -203 0 -43 -430 -1976 -452 -2036 -15 -40 -78 -103 -120 -122
-25 -11 -84 -17 -205 -22 -152 -6 -177 -9 -235 -33 -35 -14 -66 -24 -69 -22
-2 3 28 361 68 797 39 436 71 814 71 839 0 57 -27 96 -74 105 -40 7 -90 -15
-107 -48 -8 -15 -187 -1889 -189 -1975 0 -10 -99 -13 -460 -13 -253 0 -460 4
-460 8 0 15 -239 2647 -245 2700 l-6 52 711 0 712 0 -6 -42z m1530 15 c77 -41
126 -120 126 -202 -1 -59 -437 -2346 -456 -2393 -20 -46 -94 -111 -144 -126
-41 -13 -1072 -18 -1072 -6 0 20 66 84 112 109 50 28 61 29 223 36 94 4 184
12 200 17 115 36 221 124 267 224 19 40 93 349 249 1040 121 541 224 1009 228
1041 10 77 -3 168 -34 235 l-25 54 143 -4 c122 -3 148 -6 183 -25z"/>
<path d="M2436 3435 c-65 -26 -137 -90 -166 -145 -26 -51 -43 -145 -35 -199
24 -165 159 -283 325 -283 208 0 362 186 320 388 -17 80 -39 121 -97 175 -94
88 -229 113 -347 64z m195 -198 c39 -26 66 -89 56 -129 -10 -40 -54 -86 -93
-97 -67 -18 -143 27 -161 97 -17 69 52 152 127 152 22 0 51 -9 71 -23z"/>
<path d="M2455 2216 c-220 -104 -183 -424 55 -475 154 -33 300 85 300 243 0
189 -188 311 -355 232z"/>
</g>
</svg>
