<?xml version="1.0" standalone="no"?>
<!DOCTYPE svg PUBLIC "-//W3C//DTD SVG 20010904//EN"
 "http://www.w3.org/TR/2001/REC-SVG-20010904/DTD/svg10.dtd">
<svg version="1.0" xmlns="http://www.w3.org/2000/svg"
 width="512.000000pt" height="512.000000pt" viewBox="0 0 512.000000 512.000000"
 preserveAspectRatio="xMidYMid meet">
<metadata>
Created by potrace 1.16, written by Peter Selinger 2001-2019
</metadata>
<g transform="translate(0.000000,512.000000) scale(0.100000,-0.100000)"
fill="#000000" stroke="none">
<path d="M2040 5111 c-78 -24 -148 -78 -196 -150 -32 -50 -58 -154 -50 -209 3
-24 39 -146 80 -271 82 -252 140 -455 162 -568 11 -60 14 -194 14 -681 l-1
-607 -50 -55 c-290 -320 -503 -699 -618 -1101 -82 -286 -101 -462 -101 -934 0
-414 1 -419 73 -482 47 -42 96 -56 173 -51 79 5 137 43 174 114 24 46 25 59
31 269 6 240 16 284 84 401 65 112 185 204 661 510 l52 33 292 -179 c324 -198
382 -240 441 -320 101 -136 120 -202 128 -460 6 -181 10 -210 28 -245 87 -166
326 -160 407 10 16 33 17 72 13 463 -4 471 -9 517 -73 782 -105 430 -327 848
-619 1168 l-76 83 4 727 3 727 31 140 c18 77 53 223 78 325 40 160 46 194 41
255 -10 140 -102 259 -229 299 -87 27 -195 20 -270 -18 -105 -53 -175 -160
-184 -280 -5 -59 -4 -64 22 -84 17 -13 49 -24 86 -28 104 -12 103 11 28 -330
l-65 -298 -68 -19 c-37 -10 -69 -17 -71 -15 -2 2 -47 144 -100 317 -110 356
-109 333 -7 345 101 11 128 47 111 143 -22 117 -108 222 -215 262 -56 22 -172
27 -224 12z m176 -170 c37 -17 84 -62 84 -82 0 -5 -18 -13 -40 -19 -49 -13
-108 -63 -126 -107 -25 -60 -16 -110 82 -426 52 -170 93 -315 91 -321 -6 -14
-98 -39 -107 -29 -4 4 -15 42 -25 83 -28 119 -100 361 -160 540 -30 90 -55
181 -55 202 0 132 134 214 256 159z m737 5 c44 -18 94 -77 107 -128 11 -37 7
-60 -35 -227 -26 -102 -61 -251 -78 -331 l-31 -145 -4 -446 -3 -445 -262 -83
c-156 -50 -271 -92 -284 -104 -23 -20 -23 -24 -23 -280 l0 -259 -76 -81 c-260
-280 -474 -664 -588 -1052 -82 -282 -97 -401 -105 -816 -6 -322 -7 -348 -25
-368 -24 -27 -60 -27 -87 0 -21 21 -21 25 -16 413 5 422 11 488 67 721 105
438 307 813 619 1149 l81 87 0 614 0 614 38 10 c217 60 479 143 494 158 22 22
158 628 160 710 1 91 -47 152 -150 187 l-35 12 34 39 c55 62 130 82 202 51z
m-43 -2141 l0 -245 71 -77 c389 -419 626 -933 684 -1483 10 -89 15 -248 15
-464 0 -293 -2 -331 -17 -348 -20 -22 -66 -24 -87 -3 -23 23 -25 54 -30 400
-4 353 -12 427 -72 673 -108 441 -331 858 -638 1189 l-56 61 2 252 3 253 55
17 c30 10 58 18 63 19 4 1 7 -109 7 -244z m-290 -121 l5 -252 63 -68 c349
-382 566 -806 657 -1281 8 -43 15 -84 15 -92 0 -7 -21 6 -47 31 -64 59 -91 76
-428 283 -348 213 -347 212 -383 199 -43 -16 -640 -415 -695 -464 -43 -38 -47
-40 -43 -19 3 13 10 51 16 84 65 350 259 770 488 1059 31 39 96 115 144 169
l88 99 2 246 3 246 25 7 c14 4 39 7 55 6 l30 -2 5 -251z"/>
<path d="M2430 3774 c-46 -20 -97 -69 -123 -119 -29 -55 -29 -155 0 -211 110
-211 418 -162 458 73 7 45 -12 96 -40 107 -58 22 -103 -8 -123 -80 -15 -52
-34 -68 -79 -68 -68 0 -98 80 -48 129 13 14 33 25 44 25 61 0 99 53 79 110 -5
17 -18 35 -28 40 -27 15 -100 11 -140 -6z"/>
</g>
</svg>
